<svg width="32" height="32" viewBox="0 0 32 32" fill="none" xmlns="http://www.w3.org/2000/svg">
<rect width="32" height="32" rx="8" fill="#0D0D0D"/>
<g clip-path="url(#clip0_461_106)">
<path d="M16.5148 5.03682C18.6459 7.79243 19.7835 11.1905 19.7423 14.6774V15.5098L20.4454 15.9456C21.3539 16.5057 22.0315 17.3745 22.3546 18.3937C22.0709 18.1809 21.7741 17.9863 21.4659 17.811L19.5909 16.7387L19.254 18.9029C19.2248 19.0941 19.1857 19.2837 19.1368 19.4708H13.8829C13.8048 19.226 13.7413 18.9812 13.6827 18.7266L13.2579 16.7681L11.5294 17.7474C11.2406 17.9118 10.9618 18.0933 10.6944 18.2908C11.0239 17.2835 11.6873 16.4195 12.5743 15.8427L13.2433 15.407V14.6334C13.2553 11.1606 14.4067 7.78835 16.5196 5.03682H16.5148ZM16.5196 3C16.4101 3.00027 16.3043 3.04027 16.2218 3.11261L16.1778 3.15178C13.3622 6.30947 11.7987 10.3927 11.7833 14.6285C10.5885 15.4058 9.70405 16.5794 9.28457 17.9442C8.86509 19.309 8.93723 20.7783 9.48839 22.0952C10.069 20.8094 11.0396 19.7401 12.2618 19.0399C12.3844 19.5724 12.5476 20.0945 12.7501 20.6018C12.7758 20.6994 12.8327 20.7857 12.9121 20.8476C12.9915 20.9096 13.089 20.9436 13.1896 20.9446H19.9669C20.1036 20.9446 20.2403 20.8124 20.3087 20.6067C20.5063 20.1244 20.6441 19.6196 20.7189 19.1036C21.9434 19.8009 22.9148 20.8709 23.4923 22.1588C24.0767 20.8484 24.1672 19.3699 23.7469 17.9977C23.3267 16.6254 22.4243 15.4527 21.2071 14.697C21.2554 10.4362 19.7002 6.31374 16.8517 3.15178C16.8092 3.10423 16.7573 3.06614 16.6993 3.03999C16.6413 3.01384 16.5784 3.00022 16.5148 3H16.5196Z" fill="#4EA8DE"/>
<path d="M16.5146 14.2221C16.1396 14.2221 15.7729 14.1107 15.4609 13.9021C15.1488 13.6935 14.9054 13.3969 14.7612 13.0497C14.617 12.7025 14.5786 12.3203 14.6507 11.9513C14.7228 11.5822 14.9022 11.2428 15.1664 10.9759C15.4306 10.7089 15.7677 10.5264 16.1351 10.4512C16.5026 10.3761 16.8841 10.4117 17.2314 10.5536C17.5787 10.6955 17.8763 10.9374 18.0868 11.2487C18.2973 11.5599 18.4111 11.9267 18.414 12.3028V12.3028C18.4198 12.5465 18.3777 12.789 18.2901 13.0163C18.2025 13.2437 18.071 13.4516 17.9032 13.628C17.7354 13.8044 17.5346 13.9459 17.3123 14.0445C17.0899 14.1431 16.8504 14.1968 16.6074 14.2025C16.5766 14.2074 16.5453 14.2074 16.5146 14.2025V14.2221Z" fill="#4EA8DE"/>
<path d="M19.1562 22.1637C19.0341 22.1598 18.9124 22.1804 18.7982 22.2243C18.6841 22.2682 18.5798 22.3345 18.4916 22.4193C18.4034 22.5041 18.3329 22.6058 18.2844 22.7183C18.2359 22.8308 18.2102 22.9519 18.209 23.0744V25.9632C18.209 26.2151 18.3088 26.4567 18.4864 26.6348C18.6641 26.813 18.905 26.9131 19.1562 26.9131C19.4075 26.9131 19.6484 26.813 19.8261 26.6348C20.0037 26.4567 20.1035 26.2151 20.1035 25.9632V23.1136C20.1074 22.9915 20.087 22.8698 20.0436 22.7557C20.0001 22.6416 19.9344 22.5373 19.8503 22.4489C19.7663 22.3605 19.6655 22.2897 19.5539 22.2408C19.4422 22.1918 19.322 22.1656 19.2002 22.1637H19.1562Z" fill="#5E60CE"/>
<path d="M13.8828 22.1637C13.7586 22.1571 13.6343 22.1757 13.5173 22.2182C13.4003 22.2608 13.2931 22.3265 13.202 22.4115C13.1109 22.4964 13.0378 22.5989 12.9869 22.7128C12.9361 22.8267 12.9087 22.9497 12.9062 23.0744V25.9632C12.9062 26.2151 13.0061 26.4567 13.1837 26.6348C13.3613 26.813 13.6023 26.913 13.8535 26.913C14.1047 26.913 14.3457 26.813 14.5233 26.6348C14.701 26.4567 14.8008 26.2151 14.8008 25.9632V23.1136C14.8047 22.9915 14.7843 22.8698 14.7408 22.7557C14.6974 22.6416 14.6317 22.5373 14.5476 22.4488C14.4635 22.3604 14.3627 22.2897 14.2511 22.2407C14.1395 22.1918 14.0193 22.1656 13.8975 22.1637H13.8828Z" fill="#5E60CE"/>
<path d="M16.4463 22.1637C16.3244 22.1611 16.2033 22.1826 16.0897 22.227C15.9762 22.2714 15.8725 22.3377 15.7845 22.4223C15.6965 22.5069 15.626 22.608 15.5771 22.7199C15.5281 22.8318 15.5016 22.9522 15.499 23.0744V27.055C15.499 27.3069 15.5988 27.5485 15.7765 27.7267C15.9541 27.9048 16.1951 28.0049 16.4463 28.0049C16.6975 28.0049 16.9385 27.9048 17.1161 27.7267C17.2938 27.5485 17.3936 27.3069 17.3936 27.055V23.1381C17.3975 23.016 17.3771 22.8943 17.3336 22.7802C17.2901 22.6661 17.2245 22.5617 17.1404 22.4733C17.0563 22.3849 16.9555 22.3142 16.8439 22.2652C16.7323 22.2163 16.6121 22.1901 16.4902 22.1882L16.4463 22.1637Z" fill="#5E60CE"/>
</g>
<defs>
<clipPath id="clip0_461_106">
<rect width="15" height="25" fill="white" transform="translate(9 3)"/>
</clipPath>
</defs>
</svg>
